<svg version="1.1" xmlns="http://www.w3.org/2000/svg" xmlns:xlink="http://www.w3.org/1999/xlink" width="96" height="96" viewBox="0 0 96 96">
<svg width="96" height="96" viewBox="0 0 96 96" x="0" y="0">
<g>
	<path fill="none" stroke="#FFFFFF" stroke-width="1" stroke-miterlimit="10" d="M86.3,67.9H9.9c-0.7,0-1.3-0.6-1.3-1.3V17.1
		c0-0.7,0.6-1.3,1.3-1.3h76.4c0.7,0,1.3,0.6,1.3,1.3v49.5C87.6,67.3,87,67.9,86.3,67.9z"/>
	<path fill="none" stroke="#FFFFFF" stroke-width="1" stroke-miterlimit="10" d="M83.6,62.6H12.6c-0.7,0-1.3-0.6-1.3-1.3V19.8
		c0-0.7,0.6-1.3,1.3-1.3h70.9c0.7,0,1.3,0.6,1.3,1.3v41.6C84.8,62.1,84.3,62.6,83.6,62.6z"/>
	<g>
		<g>
			
				<circle fill="none" stroke="#FFFFFF" stroke-width="1" stroke-linecap="round" stroke-linejoin="round" stroke-miterlimit="10" cx="48.1" cy="26.8" r="3.9"/>
			
				<circle fill="none" stroke="#FFFFFF" stroke-width="1" stroke-linecap="round" stroke-linejoin="round" stroke-miterlimit="10" cx="48.1" cy="53.5" r="3.9"/>
			
				<line fill="none" stroke="#FFFFFF" stroke-width="1" stroke-linecap="round" stroke-linejoin="round" stroke-miterlimit="10" x1="48.1" y1="30.8" x2="48.1" y2="49.3"/>
		</g>
		<g>
			
				<circle fill="none" stroke="#FFFFFF" stroke-width="1" stroke-linecap="round" stroke-linejoin="round" stroke-miterlimit="10" cx="34.8" cy="40.1" r="3.9"/>
			
				<circle fill="none" stroke="#FFFFFF" stroke-width="1" stroke-linecap="round" stroke-linejoin="round" stroke-miterlimit="10" cx="61.4" cy="40.1" r="3.9"/>
			
				<line fill="none" stroke="#FFFFFF" stroke-width="1" stroke-linecap="round" stroke-linejoin="round" stroke-miterlimit="10" x1="38.8" y1="40.1" x2="57.3" y2="40.1"/>
		</g>
		<g>
			
				<circle fill="none" stroke="#FFFFFF" stroke-width="1" stroke-linecap="round" stroke-linejoin="round" stroke-miterlimit="10" cx="57.5" cy="30.7" r="3.9"/>
			
				<circle fill="none" stroke="#FFFFFF" stroke-width="1" stroke-linecap="round" stroke-linejoin="round" stroke-miterlimit="10" cx="38.7" cy="49.6" r="3.9"/>
			
				<line fill="none" stroke="#FFFFFF" stroke-width="1" stroke-linecap="round" stroke-linejoin="round" stroke-miterlimit="10" x1="54.7" y1="33.5" x2="41.6" y2="46.6"/>
		</g>
		<g>
			
				<circle fill="none" stroke="#FFFFFF" stroke-width="1" stroke-linecap="round" stroke-linejoin="round" stroke-miterlimit="10" cx="57.5" cy="49.6" r="3.9"/>
			
				<circle fill="none" stroke="#FFFFFF" stroke-width="1" stroke-linecap="round" stroke-linejoin="round" stroke-miterlimit="10" cx="38.7" cy="30.7" r="3.9"/>
			
				<line fill="none" stroke="#FFFFFF" stroke-width="1" stroke-linecap="round" stroke-linejoin="round" stroke-miterlimit="10" x1="54.7" y1="46.7" x2="41.6" y2="33.6"/>
		</g>
	</g>
	<path fill="none" stroke="#FFFFFF" stroke-width="1" stroke-miterlimit="10" d="M95.4,73.6l-7-4H40H37H7.8l-7,4
		c0,0-0.5,2.6,7.2,2.6h28.9h3.1h48.1C95.8,76.1,95.4,73.6,95.4,73.6z"/>
</g>
</svg>


</svg>