<svg version="1.1" xmlns="http://www.w3.org/2000/svg" xmlns:xlink="http://www.w3.org/1999/xlink" width="96" height="96" viewBox="0 0 96 96">
<svg width="96" height="96" viewBox="0 0 96 96" x="0" y="0">
	<polyline fill="none" stroke="#FFFFFF" stroke-width="1" stroke-linecap="round" stroke-linejoin="round" stroke-miterlimit="10" points="
	6.7,33 20.6,76.6 34.4,28.3 48.3,55.3 62.2,33.7 76,60.2 89.9,37.4 	"/>
	<polyline fill="none" stroke="#FFFFFF" stroke-width="1" stroke-linecap="round" stroke-linejoin="round" stroke-miterlimit="10" points="
	6.7,66.9 20.6,42.8 34.4,65.7 48.3,17.6 62.2,73.9 76,25.2 89.9,70.9 	"/>
	<circle fill="#005da6" stroke="#FFFFFF" stroke-width="1" stroke-linecap="round" stroke-linejoin="round" stroke-miterlimit="10" cx="6.7" cy="33" r="5.6"/>
	<circle fill="#005da6" stroke="#FFFFFF" stroke-width="1" stroke-linecap="round" stroke-linejoin="round" stroke-miterlimit="10" cx="6.7" cy="66.9" r="5.6"/>
	<circle fill="#005da6" stroke="#FFFFFF" stroke-width="1" stroke-linecap="round" stroke-linejoin="round" stroke-miterlimit="10" cx="20.6" cy="42.8" r="5.6"/>
	<circle fill="#005da6" stroke="#FFFFFF" stroke-width="1" stroke-linecap="round" stroke-linejoin="round" stroke-miterlimit="10" cx="20.6" cy="76.6" r="5.6"/>
	<circle fill="#005da6" stroke="#FFFFFF" stroke-width="1" stroke-linecap="round" stroke-linejoin="round" stroke-miterlimit="10" cx="34.4" cy="28.3" r="5.6"/>
	<circle fill="#005da6" stroke="#FFFFFF" stroke-width="1" stroke-linecap="round" stroke-linejoin="round" stroke-miterlimit="10" cx="34.4" cy="65.7" r="5.6"/>
	<circle fill="#005da6" stroke="#FFFFFF" stroke-width="1" stroke-linecap="round" stroke-linejoin="round" stroke-miterlimit="10" cx="48.3" cy="17.6" r="5.6"/>
	<circle fill="#005da6" stroke="#FFFFFF" stroke-width="1" stroke-linecap="round" stroke-linejoin="round" stroke-miterlimit="10" cx="48.3" cy="55.3" r="5.6"/>
	<circle fill="#005da6" stroke="#FFFFFF" stroke-width="1" stroke-linecap="round" stroke-linejoin="round" stroke-miterlimit="10" cx="62.2" cy="33.7" r="5.6"/>
	<circle fill="#005da6" stroke="#FFFFFF" stroke-width="1" stroke-linecap="round" stroke-linejoin="round" stroke-miterlimit="10" cx="62.2" cy="73.9" r="5.6"/>
	<circle fill="#005da6" stroke="#FFFFFF" stroke-width="1" stroke-linecap="round" stroke-linejoin="round" stroke-miterlimit="10" cx="76" cy="25.2" r="5.6"/>
	<circle fill="#005da6" stroke="#FFFFFF" stroke-width="1" stroke-linecap="round" stroke-linejoin="round" stroke-miterlimit="10" cx="76" cy="60.2" r="5.6"/>
	<circle fill="#005da6" stroke="#FFFFFF" stroke-width="1" stroke-linecap="round" stroke-linejoin="round" stroke-miterlimit="10" cx="89.9" cy="37.4" r="5.6"/>
	<circle fill="#005da6" stroke="#FFFFFF" stroke-width="1" stroke-linecap="round" stroke-linejoin="round" stroke-miterlimit="10" cx="89.9" cy="70.9" r="5.6"/>
</svg>

</svg>